<svg id="Layer_1" data-name="Layer 1" xmlns="http://www.w3.org/2000/svg" viewBox="0 0 347.08 257.8"><defs><style>.cls-1,.cls-9{fill:#fff;}.cls-1,.cls-3,.cls-4,.cls-5,.cls-6,.cls-7,.cls-8{fill-rule:evenodd;}.cls-2,.cls-5{opacity:0.05;}.cls-4{fill:#4d4d4d;}.cls-6{fill:#f90;}.cls-7{fill:#bf7300;}.cls-8{fill:#e88705;}</style></defs><path class="cls-1" d="M39.93,0H303.56a9.74,9.74,0,0,1,9.71,9.71V176.28h-283V9.71A9.74,9.74,0,0,1,39.93,0Z"/><path class="cls-1" d="M10.79,198.44h321.9c5.94,0,10.8-4,10.8-8.87v-8.86H224.75v1.86a2.11,2.11,0,0,1-2.27,1.86H121a2.11,2.11,0,0,1-2.27-1.86v-1.86H0v8.86C0,194.44,4.86,198.44,10.79,198.44Z"/><g class="cls-2"><path class="cls-3" d="M310.82,3.28a9.69,9.69,0,0,1,2.45,6.43V176.28H108Z"/><path class="cls-3" d="M82.06,198.44H332.69c5.94,0,10.8-4,10.8-8.87v-8.86H224.75v1.86a2.11,2.11,0,0,1-2.27,1.86H121a2.11,2.11,0,0,1-2.27-1.86v-1.86h-15.9Z"/></g><path class="cls-4" d="M40.29,10.07V166.2H303.2V10.07H194.41v2a6.06,6.06,0,0,1-6,6H155.12a6.06,6.06,0,0,1-6-6v-2Z"/><polygon class="cls-5" points="119.84 166.2 303.2 166.2 303.2 10.07 302.86 10.07 119.84 166.2"/><polygon class="cls-6" points="172.15 55.64 94.43 80.53 171.34 107.83 249.06 82.94 172.15 55.64"/><path class="cls-5" d="M172.15,55.64,94.43,80.53l76.91,27.3,3.65-1.17C159.65,81.86,172.15,55.64,172.15,55.64Z"/><path class="cls-7" d="M200.85,98.37l8.76-2.8-3.86-8.15S203.79,91.73,200.85,98.37Z"/><path class="cls-7" d="M133.46,94.39l8.67,3.07c-2.72-6.73-4.56-11.1-4.56-11.1Z"/><path class="cls-8" d="M137.57,86.36,137,126.47l.43-.15.06,0,.38-.13.11,0,.32-.11.18,0,.26-.09.23-.08.2-.06.3-.1.14,0,.11,0,.33-.1.42-.13h0l.44-.14h0l.41-.12.09,0,.35-.1.16,0,.29-.09.22-.06.22-.06.12,0,.3-.08.1,0,.38-.11.4-.1,0,0,.45-.11h0l.43-.11.41-.1.06,0,.88-.21h.05l.36-.09h.06l.33-.08.13,0,.11,0,.35-.08.45-.1h0l.46-.1h.06l.4-.09.12,0,.35-.07h0l.81-.16h.08l.31-.06.15,0,.09,0,.38-.07.44-.08h0l.47-.08h0l.44-.07,1.39-.23h.06c1.09-.17,2.18-.32,3.28-.45h0l1.43-.16.4,0h.08c1-.09,1.93-.17,2.89-.24h.07c1.25-.09,2.52-.16,3.79-.2h.6c1.44,0,2.88,0,4.33,0a99.39,99.39,0,0,1,34,6.45l.62-40.1a101.12,101.12,0,0,0-68.18-1.06Z"/><path class="cls-5" d="M137.57,86.36,137,126.47l.43-.15.06,0,.38-.13.11,0,.32-.11.18,0,.26-.09.23-.08.2-.06.3-.1.14,0,.11,0,.33-.1.42-.13h0l.44-.14h0l.41-.12.09,0,.35-.1.16,0,.29-.09.22-.06.22-.06.12,0,.3-.08.1,0,.38-.11.4-.1,0,0,.45-.11h0l.43-.11.41-.1.06,0,.88-.21h.05l.36-.09h.06l.33-.08.13,0,.11,0,.35-.08.45-.1h0l.46-.1h.06l.4-.09.12,0,.35-.07h0l.81-.16h.08l.31-.06.15,0,.09,0,.38-.07.44-.08h0l.47-.08h0l.44-.07,1.39-.23h.06c1.09-.17,2.18-.32,3.28-.45h0l1.43-.16.4,0h.08c1-.09,1.93-.17,2.89-.24h.07c1.25-.09,2.52-.16,3.79-.2h.6c1.44,0,2.88,0,4.33,0a102,102,0,0,1,22.9,3c-11.52-6.36-27.75-19.56-26.6-43A98.94,98.94,0,0,0,137.57,86.36Z"/><polygon class="cls-6" points="237.35 81.11 243.45 84.73 244.39 119.33 242.38 115.31 239.36 120.34 240.86 85.56 237.35 81.11"/><path class="cls-6" d="M0,247.43l17-13a23.71,23.71,0,0,0,4.51-4.28,6.51,6.51,0,0,0,1.33-3.89,4.3,4.3,0,0,0-1.4-3.38,5.33,5.33,0,0,0-3.66-1.23,7.52,7.52,0,0,0-4.31,1.4,26.6,26.6,0,0,0-4.7,4.44l-8.5-7.07A38.14,38.14,0,0,1,4,216.3,19.92,19.92,0,0,1,8,213.25a18.83,18.83,0,0,1,4.8-1.88,24.92,24.92,0,0,1,5.93-.65,20.6,20.6,0,0,1,6.78,1.07,16.64,16.64,0,0,1,5.29,3,13.09,13.09,0,0,1,3.43,4.58,13.92,13.92,0,0,1,1.23,5.86v.13a15.88,15.88,0,0,1-.68,4.87,13.71,13.71,0,0,1-2,4,21.75,21.75,0,0,1-3.31,3.53c-1.29,1.13-2.79,2.29-4.47,3.5l-7.78,5.45h15a23.89,23.89,0,0,0,3.29,5.18,20.88,20.88,0,0,0,6.34,5.07H0Z"/><path class="cls-6" d="M52.1,246.65a6.68,6.68,0,0,0,3.44-.91,7.8,7.8,0,0,0,2.62-2.56,13.12,13.12,0,0,0,1.66-3.89,19.63,19.63,0,0,0,.58-5v-.13a18.58,18.58,0,0,0-.62-5,13.34,13.34,0,0,0-1.71-3.93,8.51,8.51,0,0,0-2.66-2.59,6.49,6.49,0,0,0-3.38-.94V210.59h.07a20,20,0,0,1,8.72,1.85,19.75,19.75,0,0,1,6.59,5.06A22.91,22.91,0,0,1,71.59,225a28,28,0,0,1,1.46,9.08v.13a28.28,28.28,0,0,1-1.46,9.11,22.32,22.32,0,0,1-4.22,7.52,20.18,20.18,0,0,1-6.64,5.09A19.7,19.7,0,0,1,52,257.8V246.65ZM52,221.75H52a6.46,6.46,0,0,0-3.4.91,8.18,8.18,0,0,0-2.63,2.52,12.3,12.3,0,0,0-1.69,3.9,19.93,19.93,0,0,0-.58,5v.13a19.4,19.4,0,0,0,.61,5,13.57,13.57,0,0,0,1.72,4,8.1,8.1,0,0,0,2.66,2.56,6.65,6.65,0,0,0,3.37.91V257.8H52A20.16,20.16,0,0,1,43.22,256a19.38,19.38,0,0,1-6.59-5.06,23.22,23.22,0,0,1-4.15-7.49A26.89,26.89,0,0,1,31.25,238a22.3,22.3,0,0,0,2.66-3,14.93,14.93,0,0,0,2.26-4.4,17.35,17.35,0,0,0,.75-5.31v-.13a15.51,15.51,0,0,0-1.26-6.24c.34-.48.69-.93,1.07-1.38a19.61,19.61,0,0,1,15.3-7Z"/><path class="cls-9" d="M197.26,224.38a3.64,3.64,0,0,0,1.51-.31,3.92,3.92,0,0,0,1.19-.81,4.14,4.14,0,0,0,.79-1.22,3.78,3.78,0,0,0,.3-1.49,3.84,3.84,0,0,0-.3-1.51,4.14,4.14,0,0,0-.79-1.22,4,4,0,0,0-1.19-.82,3.8,3.8,0,0,0-1.51-.3H175.49a3.85,3.85,0,0,0-1.52.3,3.69,3.69,0,0,0-1.22.82,3.88,3.88,0,0,0-1.11,2.73v33.06a3.69,3.69,0,0,0,1,2.64,3.9,3.9,0,0,0,2.52,1.18h22.09a3.74,3.74,0,0,0,2.7-1.06,3.69,3.69,0,0,0,1.09-2.73,3.85,3.85,0,0,0-.3-1.52,4.2,4.2,0,0,0-.79-1.22,3.48,3.48,0,0,0-1.19-.84,3.8,3.8,0,0,0-1.51-.3H179.31v-9.4h13.94a4,4,0,0,0,1.49-.28,3.7,3.7,0,0,0,1.21-.8,4,4,0,0,0,.82-1.2,3.73,3.73,0,0,0,.3-1.48,3.85,3.85,0,0,0-.3-1.52,4.11,4.11,0,0,0-.81-1.23,3.8,3.8,0,0,0-2.71-1.14H179.31v-8.33Z"/><path class="cls-9" d="M233.59,232.83a4.2,4.2,0,0,0,.33-1.42,3.91,3.91,0,0,0-.21-1.43,3.56,3.56,0,0,0-2.06-2.1,4,4,0,0,0-2.89,0,3.89,3.89,0,0,0-1.32.87l-8.6,8.45-8.63-8.54a3.8,3.8,0,0,0-5.41,0A3.68,3.68,0,0,0,204,230a3.93,3.93,0,0,0-.3,1.42,3.61,3.61,0,0,0,.27,1.44,3.57,3.57,0,0,0,.82,1.25l8.65,8.53L204.91,251a4,4,0,0,0-.81,1.27,4.14,4.14,0,0,0-.29,1.42,3.42,3.42,0,0,0,.26,1.43,3.61,3.61,0,0,0,.86,1.23,3.8,3.8,0,0,0,2.68,1.12,3.66,3.66,0,0,0,1.41-.28,3.45,3.45,0,0,0,1.22-.85l8.54-8.41,8.5,8.38a3.7,3.7,0,0,0,2.69,1.13,3.87,3.87,0,0,0,2.71-1.12,3.45,3.45,0,0,0,.86-1.27,3.79,3.79,0,0,0,.27-1.47,4,4,0,0,0-.3-1.44,4,4,0,0,0-.82-1.28l-8.46-8.31,8.54-8.45A4.41,4.41,0,0,0,233.59,232.83Z"/><path class="cls-9" d="M262.13,231.7a15.57,15.57,0,0,0-4.86-3.29,15.12,15.12,0,0,0-6-1.2,15,15,0,0,0-5.92,1.2,15.63,15.63,0,0,0-8.15,8.14,15.12,15.12,0,0,0,0,11.9,15.51,15.51,0,0,0,8.15,8.15,14.78,14.78,0,0,0,5.92,1.2,12.9,12.9,0,0,0,4.51-.8,16.15,16.15,0,0,0,3.44-1.81,4,4,0,0,0,1.05,1.42,3.56,3.56,0,0,0,2.35.82,3.83,3.83,0,0,0,1.54-.32,4,4,0,0,0,1.25-.84,3.91,3.91,0,0,0,.83-1.24,3.84,3.84,0,0,0,.3-1.51v-11a15,15,0,0,0-1.19-5.95A15.52,15.52,0,0,0,262.13,231.7Zm-3.24,10.81a7.62,7.62,0,0,1-2.2,5.38,7.55,7.55,0,0,1-8.34,1.64,7.76,7.76,0,0,1-4.07-4.08,7.33,7.33,0,0,1-.6-2.94,7.4,7.4,0,0,1,.6-3,7.56,7.56,0,0,1,1.64-2.42,7.91,7.91,0,0,1,2.44-1.63,7.4,7.4,0,0,1,2.94-.6,7.48,7.48,0,0,1,3,.6,7.79,7.79,0,0,1,2.42,1.62,7.57,7.57,0,0,1,2.19,5.4Z"/><path class="cls-9" d="M311.52,234.29a12.41,12.41,0,0,0-2.58-3.68,11.95,11.95,0,0,0-13.12-2.43,12.54,12.54,0,0,0-3.59,2.33,12.8,12.8,0,0,0-3.57-2.33,12,12,0,0,0-9.35,0,12.64,12.64,0,0,0-3.83,2.53,12.06,12.06,0,0,0-2.6,3.76,11.14,11.14,0,0,0-1,4.59v14.64a3.63,3.63,0,0,0,.32,1.49,3.73,3.73,0,0,0,.88,1.19,4.22,4.22,0,0,0,1.23.78,3.78,3.78,0,0,0,1.49.3,3.61,3.61,0,0,0,2.67-1.08,3.66,3.66,0,0,0,1.09-2.68V239.06a3.75,3.75,0,0,1,.34-1.61,4.57,4.57,0,0,1,1-1.34,4.48,4.48,0,0,1,1.41-.9,4.75,4.75,0,0,1,3.4,0,4.21,4.21,0,0,1,1.38.85,4,4,0,0,1,.93,1.32,4.2,4.2,0,0,1,.38,1.66v14.64a3.48,3.48,0,0,0,.33,1.49,3.56,3.56,0,0,0,.87,1.19,4.22,4.22,0,0,0,1.23.78,3.78,3.78,0,0,0,1.49.3,3.69,3.69,0,0,0,3.76-3.76V239.15a4,4,0,0,1,.35-1.66,4.29,4.29,0,0,1,.95-1.35,4.6,4.6,0,0,1,1.43-.91,4.64,4.64,0,0,1,3.4,0,4.39,4.39,0,0,1,1.38.86,4.34,4.34,0,0,1,1,1.3A4.07,4.07,0,0,1,305,239v14.68a3.63,3.63,0,0,0,1.17,2.67,4,4,0,0,0,1.24.79,3.9,3.9,0,0,0,1.5.3,3.65,3.65,0,0,0,1.47-.3,4.3,4.3,0,0,0,1.17-.79,3.69,3.69,0,0,0,1.12-2.67V239.09a1.33,1.33,0,0,0,0-.3A11.66,11.66,0,0,0,311.52,234.29Z"/><path class="cls-9" d="M345.81,236.41a15.29,15.29,0,0,0-3.34-4.79,16.09,16.09,0,0,0-4.86-3.22,15.39,15.39,0,0,0-11.89,0,15.42,15.42,0,0,0-8.17,8.13,15.17,15.17,0,0,0,0,11.92,15.84,15.84,0,0,0,3.3,4.86,15.59,15.59,0,0,0,4.87,3.28,15,15,0,0,0,6,1.2,18.09,18.09,0,0,0,3.27-.27,15.19,15.19,0,0,0,2.63-.72,10.84,10.84,0,0,0,2.1-1.06,12.36,12.36,0,0,0,1.58-1.22,3.52,3.52,0,0,0,1-1.19,3.84,3.84,0,0,0,.42-1.32,3.49,3.49,0,0,0-.07-1.33,4,4,0,0,0-.5-1.21,4.26,4.26,0,0,0-1.26-1.31,3.38,3.38,0,0,0-3.08-.3,5.3,5.3,0,0,0-1.38.73,6.74,6.74,0,0,1-4.72,1.56,7.51,7.51,0,0,1-2.29-.34,7,7,0,0,1-2-1,7.16,7.16,0,0,1-1.59-1.52A7.72,7.72,0,0,1,325,246h18.28a3.78,3.78,0,0,0,2.74-1,3.55,3.55,0,0,0,1.06-2.65A14.88,14.88,0,0,0,345.81,236.41ZM339,239.46h-14.3a7.08,7.08,0,0,1,.79-1.52,7.08,7.08,0,0,1,3.76-2.68,9.32,9.32,0,0,1,5.13,0,7.54,7.54,0,0,1,2.16,1,6.94,6.94,0,0,1,1.65,1.64A6.6,6.6,0,0,1,339,239.46Z"/><path class="cls-9" d="M115.6,231.1a14.34,14.34,0,0,0-10.44-4.39,14.34,14.34,0,0,0-5.79,1.18,14.57,14.57,0,0,0-4.67,3.21,15.09,15.09,0,0,0-4.22,10.61V253.8a3.43,3.43,0,0,0,.31,1.47,3.64,3.64,0,0,0,.84,1.17,3.77,3.77,0,0,0,1.22.77,3.92,3.92,0,0,0,2.88,0,3.66,3.66,0,0,0,1.15-.78,3.34,3.34,0,0,0,.78-1.17,3.91,3.91,0,0,0,.28-1.46V241.71a8.12,8.12,0,0,1,.54-3,7.58,7.58,0,0,1,1.49-2.41,6.69,6.69,0,0,1,2.27-1.59,7.38,7.38,0,0,1,2.92-.57,6.88,6.88,0,0,1,2.83.57,7.12,7.12,0,0,1,2.25,1.57,7.57,7.57,0,0,1,1.52,2.33,8.28,8.28,0,0,1,.62,2.83,2.17,2.17,0,0,0,0,.4V253.8a3.43,3.43,0,0,0,.31,1.47,3.75,3.75,0,0,0,.82,1.16,3.64,3.64,0,0,0,1.22.78,4.06,4.06,0,0,0,1.46.27,3.74,3.74,0,0,0,1.42-.27,3.34,3.34,0,0,0,1.16-.78,3.78,3.78,0,0,0,.77-1.17,3.5,3.5,0,0,0,.3-1.46V241.71a15.2,15.2,0,0,0-1.13-5.85A15,15,0,0,0,115.6,231.1Z"/><path class="cls-9" d="M153.3,236.21a15.61,15.61,0,0,0-8.25-8.28,15.22,15.22,0,0,0-6.06-1.22,15.07,15.07,0,0,0-6,1.22,15.87,15.87,0,0,0-8.29,8.28,15.33,15.33,0,0,0,0,12.08,15.89,15.89,0,0,0,3.36,5,15.69,15.69,0,0,0,4.93,3.34,15.56,15.56,0,0,0,12.08,0,15.51,15.51,0,0,0,4.94-3.34,15.75,15.75,0,0,0,3.31-5,15.8,15.8,0,0,0,0-12.08Zm-6.25,6a7.87,7.87,0,0,1-.63,3.12,8.29,8.29,0,0,1-1.71,2.59,8,8,0,0,1-8.86,1.74,8.15,8.15,0,0,1-4.31-4.33,7.88,7.88,0,0,1-.64-3.12,8,8,0,0,1,2.38-5.72,8.11,8.11,0,0,1,2.59-1.73,7.71,7.71,0,0,1,3.12-.64,7.87,7.87,0,0,1,3.16.64,7.92,7.92,0,0,1,4.27,4.29A8,8,0,0,1,147.05,242.26Z"/></svg>